<?xml version="1.0" encoding="UTF-8"?>
<!DOCTYPE svg PUBLIC "-//W3C//DTD SVG 1.1//EN" "http://www.w3.org/Graphics/SVG/1.1/DTD/svg11.dtd">
<!-- Creator: CorelDRAW 2021 (64-Bit) -->
<svg xmlns="http://www.w3.org/2000/svg" xml:space="preserve" width="44.3488mm" height="42.629mm" version="1.1" style="shape-rendering:geometricPrecision; text-rendering:geometricPrecision; image-rendering:optimizeQuality; fill-rule:evenodd; clip-rule:evenodd"
viewBox="0 0 4434.88 4262.9"
 xmlns:xlink="http://www.w3.org/1999/xlink"
 xmlns:xodm="http://www.corel.com/coreldraw/odm/2003">
 <defs>
  <style type="text/css">
   <![CDATA[
    .str2 {stroke:#000067;stroke-width:7.62;stroke-linejoin:round;stroke-miterlimit:22.9256}
    .str1 {stroke:#FEFEFE;stroke-width:7.62;stroke-linejoin:round;stroke-miterlimit:22.9256}
    .str0 {stroke:#000067;stroke-width:20;stroke-linecap:round;stroke-linejoin:round;stroke-miterlimit:22.9256}
    .fil5 {fill:none;fill-rule:nonzero}
    .fil2 {fill:#000067}
    .fil3 {fill:#6599FF}
    .fil0 {fill:#FEFEFE}
    .fil6 {fill:#000067;fill-rule:nonzero}
    .fil4 {fill:#FEFEFE;fill-rule:nonzero}
    .fil1 {fill:url(#id0)}
   ]]>
  </style>
  <linearGradient id="id0" gradientUnits="userSpaceOnUse" x1="1512.18" y1="619.83" x2="2747.16" y2="3645.81">
   <stop offset="0" style="stop-opacity:1; stop-color:#D2AE6D"/>
   <stop offset="0.239216" style="stop-opacity:1; stop-color:#E8D6B5"/>
   <stop offset="0.760784" style="stop-opacity:1; stop-color:#FEFEFE"/>
   <stop offset="1" style="stop-opacity:1; stop-color:#FEFEFE"/>
  </linearGradient>
 </defs>
 <g id="Capa_x0020_1">
  <metadata id="CorelCorpID_0Corel-Layer"/>
  <g id="_2114002496624">
   <path class="fil0" d="M4212.09 2133.61c0,-1149.56 -931.91,-2081.46 -2081.46,-2081.46 -1149.56,0 -2081.47,931.9 -2081.47,2081.46 0,1149.55 931.91,2081.45 2081.47,2081.45 1149.55,0 2081.46,-931.9 2081.46,-2081.45z"/>
   <path class="fil1" d="M3749.53 2133.61c0,-894.1 -724.81,-1618.91 -1618.9,-1618.91 -894.1,0 -1618.91,724.81 -1618.91,1618.91 0,894.09 724.81,1618.9 1618.91,1618.9 894.09,0 1618.9,-724.81 1618.9,-1618.9z"/>
   <path class="fil2 str0" d="M2130.63 52.15c1149.55,0 2081.45,931.9 2081.45,2081.46 0,157.58 -17.9,314.67 -53.35,468.21l225.35 52.02 -596.1 303.08 -305.29 -511.18 225.34 52.03c27.58,-119.42 41.5,-241.6 41.5,-364.16 0,-894.1 -724.81,-1618.91 -1618.9,-1618.91 -894.11,0 -1618.92,724.81 -1618.92,1618.91 0,894.09 724.81,1618.9 1618.92,1618.9l0 462.55c-1149.56,0 -2081.47,-931.9 -2081.47,-2081.45 0,-1149.56 931.91,-2081.46 2081.47,-2081.46z"/>
   <g>
    <g>
     <path class="fil3" d="M2624.99 1624.61l0.12 -0.06 321.57 -172.45c104.99,-38.67 166.61,-11.53 198.66,91.98l9.81 248.83 -363.83 164.08c-81.02,-139.64 -115.98,-26.53 -97.21,33.92 12.4,39.88 47.9,32.84 82.2,37.51l168.22 22.86c68.08,9.26 96.1,10.53 156.03,50.56 51.63,34.47 92.1,87.42 99.53,198.21 18.05,269.9 15.82,403.66 -236.34,564.16 -61.15,38.87 -99.55,51.35 -164.89,78.14 -165.24,67.76 -383.61,170.4 -417.58,24.48l-13.38 -347.59 336.62 -158.21 13.52 174.61c38.91,28 57.96,32.38 87.95,-7.83 -25.11,-302.12 3.11,-194.66 -282.96,-245.14 -74.48,-13.17 -137.52,-34.58 -172.61,-76.13 353.59,-133.62 275.76,-362.59 274.57,-681.93z"/>
     <path id="_1" class="fil2" d="M2609.22 1594.81l321.57 -172.45c1.79,-0.96 3.63,-1.74 5.5,-2.34 60.61,-22.11 110.24,-24.62 151.04,-5.95 41.89,19.16 71.25,58.62 90.23,119.96 1.14,3.67 1.63,7.38 1.52,11.02l9.72 246.45c0.59,14.19 -7.69,26.71 -19.92,32.17l0.03 0.06 -363.83 164.08c-16.17,7.21 -35.01,0.68 -43.36,-14.59 -14.75,-25.37 -26,-39.71 -34.32,-46.12 -5.89,14.67 -6.31,36.88 -1.07,53.76 3.13,10.09 17.03,11.06 32.17,12.1 7.62,0.51 15.4,1.06 22.26,1.99l168.22 22.86 13.99 1.88c63.44,8.45 94.12,12.55 156.39,54.14 29.89,19.94 56.63,45.39 77.09,82.11 19.71,35.36 33.18,80.91 37.26,141.86 9.3,139.06 13.29,243.33 -18.49,336.31 -32.37,94.72 -100.05,173.72 -233.37,258.58 -53.27,33.87 -89.71,48.48 -139.42,68.41 -9.28,3.71 -19.17,7.69 -30.8,12.45 -10.71,4.39 -22.69,9.37 -34.92,14.45 -69.97,29.07 -145.98,60.65 -213.82,76.44 -104.99,24.43 -190.53,12.75 -214.43,-89.88 -0.51,-2.15 -0.79,-4.31 -0.87,-6.44l-0.01 0 -13.38 -347.59c-0.53,-13.99 7.53,-26.31 19.47,-31.87l-0.03 -0.06 329.84 -155.02c-38.84,-1.77 -92.07,-4.56 -166.25,-17.64 -39.44,-6.97 -76.2,-16.27 -108.23,-29.52 -34.21,-14.16 -63.11,-32.91 -84.4,-58.12 -12.01,-14.25 -10.19,-35.57 4.06,-47.58 3.55,-2.99 7.53,-5.12 11.7,-6.42 272.66,-103.81 265.29,-273.12 255.23,-502.92 -2,-45.67 -4.11,-93.65 -4.3,-146.61 -0.06,-12.97 7.22,-24.27 17.93,-29.95l0 -0.01zm196.77 1033c-25.11,-302.12 3.11,-194.66 -282.96,-245.14 -74.48,-13.17 -137.52,-34.58 -172.61,-76.13 353.59,-133.62 275.76,-362.59 274.57,-681.93l0.12 -0.06 321.57 -172.45c104.99,-38.67 166.61,-11.53 198.66,91.98l9.81 248.83 -363.83 164.08c-81.02,-139.64 -115.98,-26.53 -97.21,33.92 12.4,39.88 47.9,32.84 82.2,37.51l168.22 22.86c68.08,9.26 96.1,10.53 156.03,50.56 51.63,34.47 92.1,87.42 99.53,198.21 18.05,269.9 15.82,403.66 -236.34,564.16 -61.15,38.87 -99.55,51.35 -164.89,78.14 -165.24,67.76 -383.61,170.4 -417.58,24.48l-13.38 -347.59 336.62 -158.21 13.52 174.61c38.91,28 57.96,32.38 87.95,-7.83zm-78.59 -191.66c3.17,2.91 5.83,6.48 7.76,10.62 2.14,4.59 3.15,9.42 3.16,14.17l12.08 156.06c6.6,4.29 11.22,6.63 13.8,6.55 1.31,-0.04 3.56,-1.95 7.08,-6.07l-3.24 -41.29c-6.95,-88.56 -9.88,-125.63 -20.39,-134.73 -3.09,-2.68 -9.82,-4.23 -20.25,-5.31z"/>
    </g>
    <g>
     <polygon class="fil3" points="1934.67,1142.67 1948.42,1431.9 1772.12,1521.01 1822.84,2469.19 1610.42,2538.32 1574.38,2042.67 1490.82,2074.24 1513.86,2598.68 1126.52,2752.94 1083.53,1543.76 1460.35,1361.62 1464.83,1773.72 1571.91,1741.24 1554.54,1308.8 "/>
     <path id="_1_0" class="fil2" d="M1968.42 1142.38l13.68 287.82c0.69,13.75 -6.95,25.99 -18.49,31.82l0.01 0.02 -156.68 79.19 49.54 926.13c0.84,15.54 -8.99,29.19 -23.1,33.83l0.01 0.04 -212.42 69.13c-17.69,5.82 -36.77,-3.8 -42.59,-21.49 -0.87,-2.66 -1.4,-5.34 -1.6,-8.01l-0.01 0 -32.77 -450.69 -18.38 6.94 21.97 499.99c0.73,15.52 -9.16,29.1 -23.26,33.69l-385.41 153.49c-17.3,6.84 -36.9,-1.64 -43.74,-18.94 -1.44,-3.65 -2.2,-7.4 -2.34,-11.11l-0.02 0 -42.99 -1209.18c-0.55,-14.41 8.03,-27.06 20.58,-32.36l375.36 -181.44c16.77,-8.05 36.9,-0.98 44.95,15.79 2.19,4.57 3.26,9.38 3.32,14.13l0.04 0 3.99 367.17 39.14 -11.87 -16.32 -406.26c-0.59,-14.29 7.8,-26.87 20.16,-32.28l-0.02 -0.05 380.13 -166.13c17.07,-7.46 36.97,0.34 44.43,17.41 1.88,4.31 2.79,8.8 2.83,13.22zm-33.75 0.29l13.75 289.23 -176.3 89.11 50.72 948.18 -212.42 69.13 -36.04 -495.65 -83.56 31.57 23.04 524.44 -387.34 154.26 -42.99 -1209.18 376.82 -182.14 4.48 412.1 107.08 -32.48 -17.37 -432.44 380.13 -166.13z"/>
    </g>
    <g>
     <path class="fil0" d="M1948.42 1431.9c212.92,-92.27 623.17,-409.38 661.03,-79.06l13.71 272.74 1.82 -0.96 0.01 -0.01c1.19,319.34 79.02,548.31 -274.57,681.93l0 0 -186.31 54.46 31.4 378.04 -361.17 160.32 -11.5 -430.17 -50.72 -948.18 176.3 -89.11zm173.94 228.73l29.58 353.67c3.42,40.67 57.98,36.25 117.55,-27.3l-27.29 -320.85c-4.04,-47.39 -57.47,-56.13 -119.84,-5.52z"/>
     <path id="_1_1" class="fil2" d="M1936.12 1400.47c42.54,-18.54 94.54,-47.03 149.85,-77.31 117.76,-64.5 250.12,-136.99 356.17,-149.14 105.63,-12.09 184.14,28.94 200.86,174.9 0.16,1.4 0.24,2.8 0.23,4.18l13 258.61c2.07,4.99 2.85,10.24 2.47,15.36 0.25,47.51 2.36,95.46 4.35,141.15 11.31,258.51 19.63,448.78 -300.72,569.84 -0.79,0.3 -1.58,0.56 -2.38,0.8l0.03 0.09 -159.9 46.74 29.1 350.52c1.29,15.43 -7.98,29.3 -21.8,34.48l-359.4 159.54c-17.04,7.53 -36.98,-0.19 -44.51,-17.23 -2.01,-4.55 -2.93,-9.3 -2.88,-13.97l-11.47 -428.97c-0.01,-0.24 -0.01,-0.47 -0.01,-0.71l-50.63 -946.51c-0.75,-13.77 6.9,-26.07 18.47,-31.91l-0.03 -0.06 176.3 -89.11c0.95,-0.48 1.92,-0.91 2.9,-1.29zm12.3 31.43c212.92,-92.27 623.17,-409.38 661.03,-79.06l13.71 272.74 1.82 -0.96 0.01 -0.01c1.19,319.34 79.02,548.31 -274.57,681.93l-186.31 54.46 31.4 378.04 -361.17 160.32 -11.5 -430.17 -50.72 -948.18 176.3 -89.11zm173.94 228.73l29.58 353.67c3.42,40.67 57.98,36.25 117.55,-27.3l-27.29 -320.85c-4.04,-47.39 -57.47,-56.13 -119.84,-5.52zm35.24 15.8l27.59 329.84c2.01,-0.49 4.36,-1.26 7.02,-2.32 12.11,-4.84 26.59,-14.52 42.33,-29.52l-25.97 -305.32c-0.3,-3.6 -0.99,-6.02 -1.97,-7.23 -0.01,-0.01 -0.01,-0.02 -0.02,-0.03l-0.1 0.08c-0.31,-0.38 -0.85,-0.73 -1.52,-0.97 -1.97,-0.71 -4.77,-0.93 -8.28,-0.64 -10.72,0.91 -24.04,6.1 -39.08,16.11z"/>
    </g>
   </g>
   <polygon class="fil4 str1" points="174.89,2161.66 176.49,2116.01 273.01,2119.38 275.24,2055.46 178.72,2052.09 180.31,2006.44 424.89,2014.98 423.29,2060.63 311.11,2056.71 308.88,2120.63 421.06,2124.55 419.46,2170.2 "/>
   <g>
    <path class="fil4" d="M333.23 1961.98l-48.47 -5.95c-40,-4.91 -66.72,-14.39 -80.23,-28.48 -13.45,-14.09 -18.46,-35.31 -14.99,-63.59 3.89,-31.69 14.91,-51.76 33.1,-60.26 18.08,-8.47 45.29,-10.49 81.57,-6.04l48.73 5.99c35.9,4.4 60.78,13.31 74.69,26.7 13.77,13.24 18.87,34.64 15.26,64.05 -3.5,28.51 -13.3,48.07 -29.39,58.64 -16.03,10.58 -42.82,13.54 -80.27,8.94zm-60.3 -55.08l78.91 9.69c33.63,4.13 51.7,-4.28 54.28,-25.22 2.7,-22.02 -12.15,-35.02 -44.47,-38.99l-77.52 -9.52c-36,-4.42 -55.35,4.11 -57.98,25.6 -2.64,21.47 12.93,34.29 46.78,38.44zm-98.58 -44.98l0 0 0 0z"/>
    <path id="_1_0" class="fil5 str1" d="M333.23 1961.98l-48.47 -5.95c-40,-4.91 -66.72,-14.39 -80.23,-28.48 -13.45,-14.09 -18.46,-35.31 -14.99,-63.59 3.89,-31.69 14.91,-51.76 33.1,-60.26 18.08,-8.47 45.29,-10.49 81.57,-6.04l48.73 5.99c35.9,4.4 60.78,13.31 74.69,26.7 13.77,13.24 18.87,34.64 15.26,64.05 -3.5,28.51 -13.3,48.07 -29.39,58.64 -16.03,10.58 -42.82,13.54 -80.27,8.94zm-60.3 -55.08l78.91 9.69c33.63,4.13 51.7,-4.28 54.28,-25.22 2.7,-22.02 -12.15,-35.02 -44.47,-38.99l-77.52 -9.52c-36,-4.42 -55.35,4.11 -57.98,25.6 -2.64,21.47 12.93,34.29 46.78,38.44zm-98.58 -44.98l0 0"/>
   </g>
   <g>
    <path class="fil4" d="M371.64 1757.37l10.28 -44.51 0 0 13.83 3.19c26.39,6.1 41.75,-0.23 46.09,-19.05 3.88,-16.8 -3.29,-27.33 -21.51,-31.54 -9.86,-2.27 -18.62,-1.05 -26.26,3.71 -7.65,4.65 -18.82,14.3 -33.5,28.82 -15.32,15.12 -29.49,25.96 -42.59,32.65 -13.11,6.52 -27.31,8.04 -42.67,4.49 -41.97,-9.69 -57.56,-37.9 -46.77,-84.64 5.75,-24.91 15.93,-41.19 30.53,-48.82 14.57,-7.75 35.34,-8.47 62.31,-2.25l0 0 -9.99 43.25 0 0 -7.95 -1.84c-22.04,-5.09 -35.03,0.89 -38.97,17.95 -3.69,16.01 1.92,25.74 16.87,29.19 8.17,1.88 15.18,0.99 21.04,-2.68 5.78,-3.74 17.13,-13.51 33.96,-29.33 17.84,-17.1 32.85,-28.65 45.01,-34.66 12.13,-6.12 26.52,-7.27 43.1,-3.44 21.83,5.04 37.53,15.14 47.02,30.34 9.51,15.14 11.58,34.21 6.29,57.15 -11.19,48.43 -40.36,67.2 -87.52,56.31l-18.6 -4.29zm-158.15 -109.85l0 0 0 0zm259.22 56.5l0 0 0 0z"/>
    <path id="_1_1" class="fil5 str1" d="M371.64 1757.37l10.28 -44.51 0 0 13.83 3.19c26.39,6.1 41.75,-0.23 46.09,-19.05 3.88,-16.8 -3.29,-27.33 -21.51,-31.54 -9.86,-2.27 -18.62,-1.05 -26.26,3.71 -7.65,4.65 -18.82,14.3 -33.5,28.82 -15.32,15.12 -29.49,25.96 -42.59,32.65 -13.11,6.52 -27.31,8.04 -42.67,4.49 -41.97,-9.69 -57.56,-37.9 -46.77,-84.64 5.75,-24.91 15.93,-41.19 30.53,-48.82 14.57,-7.75 35.34,-8.47 62.31,-2.25l0 0 -9.99 43.25 0 0 -7.95 -1.84c-22.04,-5.09 -35.03,0.89 -38.97,17.95 -3.69,16.01 1.92,25.74 16.87,29.19 8.17,1.88 15.18,0.99 21.04,-2.68 5.78,-3.74 17.13,-13.51 33.96,-29.33 17.84,-17.1 32.85,-28.65 45.01,-34.66 12.13,-6.12 26.52,-7.27 43.1,-3.44 21.83,5.04 37.53,15.14 47.02,30.34 9.51,15.14 11.58,34.21 6.29,57.15 -11.19,48.43 -40.36,67.2 -87.52,56.31l-18.6 -4.29zm-158.15 -109.85l0 0m259.22 56.5l0 0"/>
   </g>
   <path class="fil4 str1" d="M274.43 1505.86l34.29 -84.86c7.11,-17.6 18.04,-28.85 32.81,-33.61 14.66,-4.93 32.39,-3.22 53.16,5.17 45.43,18.36 59.05,50.14 40.82,95.27l-11.76 29.09 94.69 38.26 -17.11 42.36 -226.9 -91.68zm50.39 -28.91l65.65 26.53 8.62 -21.33c4.16,-10.29 4.81,-19.17 2,-26.58 -2.91,-7.46 -11.22,-13.92 -24.88,-19.44 -11.04,-4.46 -19.68,-5.43 -25.85,-2.94 -6.24,2.53 -11.89,9.98 -16.92,22.44l-8.62 21.32z"/>
   <g>
    <path class="fil4" d="M346.04 1328.03l18.58 -41.73 223.56 99.53 -18.58 41.73 -223.56 -99.53zm-9.36 -29.53l0 0 0 0zm244.2 103.72l0 0 0 0zm-248.91 -55.45l0 0 0 0z"/>
    <path id="_1_2" class="fil5 str1" d="M346.04 1328.03l18.58 -41.73 223.56 99.53 -18.58 41.73 -223.56 -99.53zm-9.36 -29.53l0 0m244.2 103.72l0 0m-248.91 -55.45l0 0"/>
   </g>
   <g>
    <path class="fil4" d="M389.43 1239.98l76.35 -132.25 31.08 17.94 -26.75 46.34 180.85 104.42 -22.84 39.57 -180.86 -104.42 -26.75 46.34 -31.08 -17.94zm20.37 -76.4l0 0 0 0zm229.74 132.64l0 0 0 0zm-257.25 -54.34l0 0 0 0z"/>
    <path id="_1_3" class="fil5 str1" d="M389.43 1239.98l76.35 -132.25 31.08 17.94 -26.75 46.34 180.85 104.42 -22.84 39.57 -180.86 -104.42 -26.75 46.34 -31.08 -17.94zm20.37 -76.4l0 0m229.74 132.64l0 0m-257.25 -54.34l0 0"/>
   </g>
   <g>
    <path class="fil4" d="M678.76 1220.88l-166.78 -188.47 35.19 -50.26 232.65 94.4 -28.23 40.32 -58.1 -25.88 0.09 0.07 -30.6 43.7 -0.09 -0.06 44.09 45.87 -28.22 40.31zm-41.12 -112.71l0.09 0.07 22.42 -32.03 -0.09 -0.07 -92.93 -42.49 0 0 70.51 74.52zm-124.91 -112.68l0 0 0 0zm253.24 100.84l0 0 0 0zm-293.65 -16.41l0 0 0 0z"/>
    <path id="_1_4" class="fil5 str1" d="M678.76 1220.88l-166.78 -188.47 35.19 -50.26 232.65 94.4 -28.23 40.32 -58.1 -25.88 0.09 0.07 -30.6 43.7 -0.09 -0.06 44.09 45.87 -28.22 40.31zm-41.12 -112.71l0.09 0.07 22.42 -32.03 -0.09 -0.07 -92.93 -42.49 0 0 70.51 74.52zm-124.91 -112.68l0 0m253.24 100.84l0 0m-293.65 -16.41l0 0"/>
   </g>
   <g>
    <path class="fil4" d="M613.36 899.14l29.96 -34.47 157.61 137 55.23 -63.54 27.09 23.55 -85.2 98.01 -184.69 -160.55zm-0.54 -30.72l0 0 0 0zm227.83 142.27l0 0 0 0zm-245.8 -98.23l0 0 0 0z"/>
    <path id="_1_5" class="fil5 str1" d="M613.36 899.14l29.96 -34.47 157.61 137 55.23 -63.54 27.09 23.55 -85.2 98.01 -184.69 -160.55zm-0.54 -30.72l0 0m227.83 142.27l0 0m-245.8 -98.23l0 0"/>
   </g>
   <path class="fil4 str1" d="M802.85 694.48l69.07 -60.05c14.33,-12.45 29.17,-17.51 44.49,-15.05 15.31,2.27 30.33,11.84 45.03,28.75 32.14,36.98 29.84,71.48 -6.89,103.41l-23.68 20.58 67 77.08 -34.47 29.97 -160.55 -184.69zm58.02 -2.88l46.45 53.44 17.36 -15.09c8.38,-7.28 12.99,-14.9 13.85,-22.79 0.79,-7.96 -3.67,-17.48 -13.34,-28.6 -7.81,-8.99 -15.08,-13.78 -21.7,-14.36 -6.71,-0.58 -15.12,3.49 -25.26,12.31l-17.36 15.09z"/>
   <g>
    <path class="fil4" d="M1088.11 774.57l-92.26 -234.15 50.26 -35.18 186.33 168.27 -40.32 28.23 -45.74 -44.18 0.06 0.09 -43.7 30.6 -0.06 -0.09 25.74 58.19 -40.31 28.22zm-0.09 -119.97l0.06 0.09 32.03 -22.43 -0.06 -0.09 -72.79 -71.72 0 0 40.76 94.15zm-78.84 -148.61l0 0 0 0zm203.48 181.37l0 0 0 0zm-270.33 -115.85l0 0 0 0z"/>
    <path id="_1_6" class="fil5 str1" d="M1088.11 774.57l-92.26 -234.15 50.26 -35.18 186.33 168.27 -40.32 28.23 -45.74 -44.18 0.06 0.09 -43.7 30.6 -0.06 -0.09 25.74 58.19 -40.31 28.22zm-0.09 -119.97l0.06 0.09 32.03 -22.43 -0.06 -0.09 -72.79 -71.72 0 0 40.76 94.15zm-78.84 -148.61l0 0m203.48 181.37l0 0m-270.33 -115.85l0 0"/>
   </g>
   <path class="fil4 str1" d="M1252.93 664.5l-122.36 -211.94 68.38 -39.48c33.72,-19.47 61.05,-11.08 81.96,25.14 13.16,22.79 13.01,42.54 -0.44,59.28 23.28,-8.42 43.37,2.03 60.26,31.27 24.55,42.53 18.78,74.19 -17.3,95.02l-70.5 40.71zm21.61 -53.93l19.97 -11.53c8.72,-5.03 13.46,-11.16 14.23,-18.32 0.76,-7.16 -2.36,-16.8 -9.32,-28.85 -6.9,-11.96 -13.76,-18.74 -20.59,-20.45 -6.78,-1.74 -15.26,0.33 -25.48,6.23l-15.68 9.05 36.87 63.87zm-54.82 -94.95l13.24 -7.64c10.64,-6.14 16.59,-12.28 17.73,-18.34 1.27,-6.07 -1.59,-15.16 -8.55,-27.21 -4.76,-8.25 -9.64,-13.65 -14.63,-16.1 -5.04,-2.63 -11.65,-1.57 -19.7,3.08l-19.74 11.39 31.65 54.82z"/>
   <g>
    <path class="fil4" d="M1326.21 347.32l42.64 -16.37 74.84 194.96 78.6 -30.17 12.86 33.51 -121.24 46.54 -87.7 -228.47zm13.95 -27.38l0 0 0 0zm134.36 232.58l0 0 0 0zm-170.9 -202.13l0 0 0 0z"/>
    <path id="_1_7" class="fil5 str1" d="M1326.21 347.32l42.64 -16.37 74.84 194.96 78.6 -30.17 12.86 33.51 -121.24 46.54 -87.7 -228.47zm13.95 -27.38l0 0m134.36 232.58l0 0m-170.9 -202.13l0 0"/>
   </g>
   <g>
    <path class="fil4" d="M1536.14 424.56l-13.46 -46.94c-11.11,-38.74 -12.83,-67.04 -5.14,-84.98 7.72,-17.89 25.3,-30.79 52.68,-38.64 30.7,-8.8 53.47,-6.5 68.41,6.92 14.86,13.33 27.35,37.59 37.43,72.72l13.53 47.2c9.97,34.77 11.49,61.15 4.61,79.19 -6.82,17.85 -24.52,30.9 -53.01,39.07 -27.61,7.92 -49.44,6.54 -65.45,-4.14 -16.01,-10.63 -29.2,-34.12 -39.6,-70.4zm27.14 -77.02l21.91 76.42c9.34,32.57 24.14,45.92 44.43,40.1 21.33,-6.11 27.49,-24.86 18.51,-56.17l-21.53 -75.07c-9.99,-34.86 -25.4,-49.34 -46.21,-43.37 -20.8,5.96 -26.51,25.31 -17.11,58.09zm2.88 -108.33l0 0 0 0z"/>
    <path id="_1_8" class="fil5 str1" d="M1536.14 424.56l-13.46 -46.94c-11.11,-38.74 -12.83,-67.04 -5.14,-84.98 7.72,-17.89 25.3,-30.79 52.68,-38.64 30.7,-8.8 53.47,-6.5 68.41,6.92 14.86,13.33 27.35,37.59 37.43,72.72l13.53 47.2c9.97,34.77 11.49,61.15 4.61,79.19 -6.82,17.85 -24.52,30.9 -53.01,39.07 -27.61,7.92 -49.44,6.54 -65.45,-4.14 -16.01,-10.63 -29.2,-34.12 -39.6,-70.4zm27.14 -77.02l21.91 76.42c9.34,32.57 24.14,45.92 44.43,40.1 21.33,-6.11 27.49,-24.86 18.51,-56.17l-21.53 -75.07c-9.99,-34.86 -25.4,-49.34 -46.21,-43.37 -20.8,5.96 -26.51,25.31 -17.11,58.09zm2.88 -108.33l0 0"/>
   </g>
   <g>
    <path class="fil4" d="M1821.67 361.94l45.34 -5.57 0 0 1.73 14.08c3.3,26.89 14.5,39.16 33.66,36.81 17.11,-2.11 24.56,-12.45 22.28,-31.01 -1.23,-10.04 -5.38,-17.86 -12.47,-23.41 -6.98,-5.6 -19.86,-12.79 -38.54,-21.62 -19.44,-9.22 -34.47,-18.83 -45.24,-28.85 -10.61,-10.09 -16.89,-22.91 -18.81,-38.57 -5.25,-42.75 15.93,-67.05 63.54,-72.89 25.37,-3.12 44.16,0.88 56.31,11.99 12.27,11.04 20.05,30.31 23.43,57.78l0 0 -44.05 5.41 0 0 -1 -8.1c-2.75,-22.45 -12.82,-32.61 -30.2,-30.48 -16.3,2 -23.52,10.61 -21.65,25.83 1.02,8.32 4.26,14.6 9.71,18.86 5.5,4.15 18.56,11.47 39.18,21.88 22.16,10.92 38.15,21.07 47.96,30.44 9.9,9.3 15.9,22.43 17.97,39.32 2.73,22.24 -1.39,40.44 -12.42,54.56 -10.98,14.12 -28.19,22.59 -51.55,25.46 -49.34,6.06 -76.96,-14.94 -82.86,-62.98l-2.32 -18.94zm49.13 -186.19l0 0 0 0zm35.57 262.91l0 0 0 0z"/>
    <path id="_1_9" class="fil5 str1" d="M1821.67 361.94l45.34 -5.57 0 0 1.73 14.08c3.3,26.89 14.5,39.16 33.66,36.81 17.11,-2.11 24.56,-12.45 22.28,-31.01 -1.23,-10.04 -5.38,-17.86 -12.47,-23.41 -6.98,-5.6 -19.86,-12.79 -38.54,-21.62 -19.44,-9.22 -34.47,-18.83 -45.24,-28.85 -10.61,-10.09 -16.89,-22.91 -18.81,-38.57 -5.25,-42.75 15.93,-67.05 63.54,-72.89 25.37,-3.12 44.16,0.88 56.31,11.99 12.27,11.04 20.05,30.31 23.43,57.78l0 0 -44.05 5.41 0 0 -1 -8.1c-2.75,-22.45 -12.82,-32.61 -30.2,-30.48 -16.3,2 -23.52,10.61 -21.65,25.83 1.02,8.32 4.26,14.6 9.71,18.86 5.5,4.15 18.56,11.47 39.18,21.88 22.16,10.92 38.15,21.07 47.96,30.44 9.9,9.3 15.9,22.43 17.97,39.32 2.73,22.24 -1.39,40.44 -12.42,54.56 -10.98,14.12 -28.19,22.59 -51.55,25.46 -49.34,6.06 -76.96,-14.94 -82.86,-62.98l-2.32 -18.94zm49.13 -186.19l0 0m35.57 262.91l0 0"/>
   </g>
   <g>
    <path class="fil4" d="M2012.43 331.09l-1.71 -48.8c-1.4,-40.27 3.78,-68.15 15.58,-83.69 11.82,-15.49 31.99,-23.76 60.47,-24.76 31.91,-1.11 53.45,6.63 64.7,23.27 11.19,16.53 17.44,43.09 18.72,79.61l1.71 49.07c1.26,36.15 -3.64,62.12 -14.69,77.95 -10.93,15.68 -31.26,24.06 -60.88,25.1 -28.7,1 -49.56,-5.62 -62.51,-19.86 -12.96,-14.18 -20.07,-40.17 -21.39,-77.89zm44.97 -68.17l2.77 79.45c1.18,33.87 12.32,50.41 33.41,49.67 22.17,-0.78 32.69,-17.47 31.55,-50.02l-2.73 -78.06c-1.26,-36.24 -12.71,-54.01 -34.35,-53.26 -21.62,0.76 -31.84,18.14 -30.65,52.22zm29 -104.4l0 0 0 0z"/>
    <path id="_1_10" class="fil5 str1" d="M2012.43 331.09l-1.71 -48.8c-1.4,-40.27 3.78,-68.15 15.58,-83.69 11.82,-15.49 31.99,-23.76 60.47,-24.76 31.91,-1.11 53.45,6.63 64.7,23.27 11.19,16.53 17.44,43.09 18.72,79.61l1.71 49.07c1.26,36.15 -3.64,62.12 -14.69,77.95 -10.93,15.68 -31.26,24.06 -60.88,25.1 -28.7,1 -49.56,-5.62 -62.51,-19.86 -12.96,-14.18 -20.07,-40.17 -21.39,-77.89zm44.97 -68.17l2.77 79.45c1.18,33.87 12.32,50.41 33.41,49.67 22.17,-0.78 32.69,-17.47 31.55,-50.02l-2.73 -78.06c-1.26,-36.24 -12.71,-54.01 -34.35,-53.26 -21.62,0.76 -31.84,18.14 -30.65,52.22zm29 -104.4l0 0"/>
   </g>
   <g>
    <path class="fil4" d="M2379.08 436.71l-49.91 -3.49c-2.67,-8.69 -2.95,-28.72 -0.76,-60.08 1.37,-19.58 -0.31,-32.24 -4.98,-38.01 -4.71,-5.84 -17.27,-9.5 -37.61,-10.92l-16.55 -1.16 -7.37 105.47 -45.57 -3.19 17.07 -244.12 87.07 6.08c24.36,1.71 41.41,8.18 51.04,19.38 9.73,11.26 13.99,25.94 12.72,44.18 -2.49,35.64 -16.67,54.27 -42.52,56.01 11.97,2.63 20.66,7.93 26.21,15.84 5.49,7.97 7.75,18.59 6.82,31.94l-1.34 19.03c-2.28,32.61 -0.26,52.1 6,58.48l-0.32 4.56zm-43 -180.24c0.84,-11.99 -0.76,-20.44 -4.77,-25.41 -3.95,-4.96 -11.17,-7.81 -21.7,-8.55l-33.15 -2.32 -4.68 67.06 33.14 2.32c19.16,1.34 29.52,-9.72 31.16,-33.1zm-23.78 -90.36l0 0 0 0zm-17.2 264.73l0 0 0 0zm-82.49 -256.33l0 0 0 0z"/>
    <path id="_1_11" class="fil5 str1" d="M2379.08 436.71l-49.91 -3.49c-2.67,-8.69 -2.95,-28.72 -0.76,-60.08 1.37,-19.58 -0.31,-32.24 -4.98,-38.01 -4.71,-5.84 -17.27,-9.5 -37.61,-10.92l-16.55 -1.16 -7.37 105.47 -45.57 -3.19 17.07 -244.12 87.07 6.08c24.36,1.71 41.41,8.18 51.04,19.38 9.73,11.26 13.99,25.94 12.72,44.18 -2.49,35.64 -16.67,54.27 -42.52,56.01 11.97,2.63 20.66,7.93 26.21,15.84 5.49,7.97 7.75,18.59 6.82,31.94l-1.34 19.03c-2.28,32.61 -0.26,52.1 6,58.48l-0.32 4.56zm-43 -180.24c0.84,-11.99 -0.76,-20.44 -4.77,-25.41 -3.95,-4.96 -11.17,-7.81 -21.7,-8.55l-33.15 -2.32 -4.68 67.06 33.14 2.32c19.16,1.34 29.52,-9.72 31.16,-33.1zm-23.78 -90.36l0 0m-17.2 264.73l0 0m-82.49 -256.33l0 0"/>
   </g>
   <g>
    <path class="fil4" d="M2459.46 206.38l44.98 7.94 -42.49 241 -44.99 -7.93 42.5 -241.01zm26.39 -16.22l0 0 0 0zm-41.57 262.04l0 0 0 0zm-6.41 -254.93l0 0 0 0z"/>
    <path id="_1_12" class="fil5 str1" d="M2459.46 206.38l44.98 7.94 -42.49 241 -44.99 -7.93 42.5 -241.01zm26.39 -16.22l0 0m-41.57 262.04l0 0m-6.41 -254.93l0 0"/>
   </g>
   <g>
    <path class="fil4" d="M2484.7 457.28l123.9 -219.05 58.98 16.91 -13.51 250.71 -47.31 -13.57 5.55 -63.35 -0.04 0.1 -51.28 -14.7 0.03 -0.11 -29.02 56.62 -47.3 -13.56zm93.18 -75.57l-0.03 0.1 37.58 10.78 0.03 -0.11 9.93 -101.7 0 0 -47.51 90.93zm65.87 -154.79l0 0 0 0zm-12.89 272.27l0 0 0 0zm-80.09 -282.99l0 0 0 0z"/>
    <path id="_1_13" class="fil5 str1" d="M2484.7 457.28l123.9 -219.05 58.98 16.91 -13.51 250.71 -47.31 -13.57 5.55 -63.35 -0.04 0.1 -51.28 -14.7 0.03 -0.11 -29.02 56.62 -47.3 -13.56zm93.18 -75.57l-0.03 0.1 37.58 10.78 0.03 -0.11 9.93 -101.7 0 0 -47.51 90.93zm65.87 -154.79l0 0m-12.89 272.27l0 0m-80.09 -282.99l0 0"/>
   </g>
   <path class="fil6" d="M2398.41 4054.01l80.96 -14.45 9.47 53.01c3.66,20.53 14.36,29.25 32,26.1 18.6,-3.32 25.48,-18.27 20.73,-44.87l-60.28 -337.68 80.95 -14.45 60.56 339.23c6.48,36.33 2.34,64.32 -12.38,83.85 -14.71,19.54 -40.52,32.6 -77.33,39.17 -31.04,5.54 -58.14,2.42 -81.43,-9.34 -23.33,-12.04 -38.62,-38.64 -45.98,-79.89 -2.43,-13.59 -3.98,-22.27 -4.68,-26.21 -0.74,-4.15 -1.61,-8.97 -2.59,-14.47zm225.32 -348.52l76.5 -30.17 111.01 281.5c10.88,27.6 22.75,45.44 35.61,53.51 12.8,7.9 28.24,8.33 46.45,1.15 19.58,-7.72 31.43,-18.49 35.68,-32.27 4.43,-13.85 0.88,-35.39 -10.65,-64.63l-111 -281.49 76.49 -30.17 113.49 287.79c17.74,44.98 21.34,81.87 10.64,110.51 -10.74,28.54 -40.12,52.23 -88.2,71.19 -47.82,18.85 -85.56,22.16 -113.25,9.82 -27.78,-12.51 -50.83,-42.14 -69.29,-88.96l-113.48 -287.78zm116.47 -85.71l0 0 0 0zm218.9 427l0 0 0 0zm-375.98 -335.38l0 0 0 0zm488.28 120.77l69.24 -44.38 29.06 45.33c11.25,17.55 24.48,21.51 39.56,11.84 15.91,-10.19 16.53,-26.64 1.95,-49.39l-185.12 -288.78 69.23 -44.38 185.96 290.11c19.92,31.07 26.82,58.51 20.71,82.19 -6.09,23.68 -24.93,45.64 -56.41,65.82 -26.54,17.01 -52.77,24.52 -78.78,22.59 -26.17,-2.18 -50.49,-20.89 -73.1,-56.17 -7.45,-11.62 -12.21,-19.04 -14.37,-22.42 -2.28,-3.54 -4.92,-7.66 -7.93,-12.36zm79.92 -406.91l59.52 -56.75 208.8 219c20.48,21.48 38.19,33.54 53.14,36.18 14.83,2.49 29.3,-2.91 43.47,-16.42 15.23,-14.52 22.16,-28.96 20.91,-43.33 -1.11,-14.5 -12.51,-33.12 -34.2,-55.86l-208.8 -219.01 59.52 -56.74 213.46 223.9c33.37,35 50.59,67.81 51.46,98.37 0.8,30.48 -17.5,63.49 -54.92,99.16 -37.2,35.47 -70.92,52.73 -101.22,51.73 -30.44,-1.14 -62.95,-19.91 -97.67,-56.33l-213.47 -223.9zm75.64 -123.26l0 0 0 0zm363.54 313.21l0 0 0 0zm-474.57 -169.19l0 0 0 0zm263.07 -233.09l52.2 -73.39 176.26 43.19 -0.06 0.08 -100.17 -150.18 52.2 -73.39 139.75 239.96 152.85 108.71 -47.66 67.01 -152.85 -108.71 -272.52 -53.28zm60.05 -148.29l0 0 0 0zm-70.44 146.67l0 0 0 0z"/>
   <path id="_1_2_14" class="fil5 str2" d="M2398.41 4054.01l80.96 -14.45 9.47 53.01c3.66,20.53 14.36,29.25 32,26.1 18.6,-3.32 25.48,-18.27 20.73,-44.87l-60.28 -337.68 80.95 -14.45 60.56 339.23c6.48,36.33 2.34,64.32 -12.38,83.85 -14.71,19.54 -40.52,32.6 -77.33,39.17 -31.04,5.54 -58.14,2.42 -81.43,-9.34 -23.33,-12.04 -38.62,-38.64 -45.98,-79.89 -2.43,-13.59 -3.98,-22.27 -4.68,-26.21 -0.74,-4.15 -1.61,-8.97 -2.59,-14.47zm225.32 -348.52l76.5 -30.17 111.01 281.5c10.88,27.6 22.75,45.44 35.61,53.51 12.8,7.9 28.24,8.33 46.45,1.15 19.58,-7.72 31.43,-18.49 35.68,-32.27 4.43,-13.85 0.88,-35.39 -10.65,-64.63l-111 -281.49 76.49 -30.17 113.49 287.79c17.74,44.98 21.34,81.87 10.64,110.51 -10.74,28.54 -40.12,52.23 -88.2,71.19 -47.82,18.85 -85.56,22.16 -113.25,9.82 -27.78,-12.51 -50.83,-42.14 -69.29,-88.96l-113.48 -287.78zm116.47 -85.71l0 0m218.9 427l0 0m-375.98 -335.38l0 0m488.28 120.77l69.24 -44.38 29.06 45.33c11.25,17.55 24.48,21.51 39.56,11.84 15.91,-10.19 16.53,-26.64 1.95,-49.39l-185.12 -288.78 69.23 -44.38 185.96 290.11c19.92,31.07 26.82,58.51 20.71,82.19 -6.09,23.68 -24.93,45.64 -56.41,65.82 -26.54,17.01 -52.77,24.52 -78.78,22.59 -26.17,-2.18 -50.49,-20.89 -73.1,-56.17 -7.45,-11.62 -12.21,-19.04 -14.37,-22.42 -2.28,-3.54 -4.92,-7.66 -7.93,-12.36zm79.92 -406.91l59.52 -56.75 208.8 219c20.48,21.48 38.19,33.54 53.14,36.18 14.83,2.49 29.3,-2.91 43.47,-16.42 15.23,-14.52 22.16,-28.96 20.91,-43.33 -1.11,-14.5 -12.51,-33.12 -34.2,-55.86l-208.8 -219.01 59.52 -56.74 213.46 223.9c33.37,35 50.59,67.81 51.46,98.37 0.8,30.48 -17.5,63.49 -54.92,99.16 -37.2,35.47 -70.92,52.73 -101.22,51.73 -30.44,-1.14 -62.95,-19.91 -97.67,-56.33l-213.47 -223.9zm75.64 -123.26l0 0m363.54 313.21l0 0m-474.57 -169.19l0 0m263.07 -233.09l52.2 -73.39 176.26 43.19 -0.06 0.08 -100.17 -150.18 52.2 -73.39 139.75 239.96 152.85 108.71 -47.66 67.01 -152.85 -108.71 -272.52 -53.28zm60.05 -148.29l0 0m-70.44 146.67l0 0"/>
  </g>
 </g>
</svg>
