<?xml version="1.0" encoding="UTF-8"?>
<!DOCTYPE svg PUBLIC "-//W3C//DTD SVG 1.1//EN" "http://www.w3.org/Graphics/SVG/1.1/DTD/svg11.dtd">
<!-- Creator: CorelDRAW 2021 (64-Bit) -->
<svg xmlns="http://www.w3.org/2000/svg" xml:space="preserve" width="15mm" height="15mm" version="1.1" style="shape-rendering:geometricPrecision; text-rendering:geometricPrecision; image-rendering:optimizeQuality; fill-rule:evenodd; clip-rule:evenodd"
viewBox="0 0 1500 1500"
 xmlns:xlink="http://www.w3.org/1999/xlink"
 xmlns:xodm="http://www.corel.com/coreldraw/odm/2003">
 <defs>
  <style type="text/css">
   <![CDATA[
    .str0 {stroke:#A9ABAE;stroke-width:7.62;stroke-miterlimit:22.9256}
    .fil1 {fill:none}
    .fil0 {fill:#FEFEFE}
   ]]>
  </style>
 </defs>
 <g id="Capa_x0020_1">
  <metadata id="CorelCorpID_0Corel-Layer"/>
  <g id="_1653013007536">
   <path class="fil0" d="M812.96 326.66l-37.96 117.03 -83.46 8.95 -122.22 384.53 -94.81 -4.42 60.09 -202.43 -37.95 0 -69.6 211.93 -177.13 3.16 164.48 -487.12 177.14 -15.82 -60.1 164.48 47.45 3.17 58.02 -174.5 176.05 -8.96zm-37.96 117.03c98.5,-4.7 309.19,-69.16 274.64,67.83l-35.5 110.48 0.87 -0.11 0 0c-47.47,127.12 -50.92,229.82 -211.54,229.85l0 0 -82.24 -6.33 -44.28 154.99 -167.65 9.49 60.02 -172.72 122.22 -384.53 83.46 -8.95zm240.01 178.2l0.06 -0.01 153.72 -20.26c47.55,0.39 67.96,20.43 65.16,66.39l-33.46 100.38 -169.27 10.6c-11.24,-67.68 -42.12,-27.96 -43.73,-1.12 -1.06,17.72 14.11,20.25 27.04,27.26l63.44 34.34c25.67,13.91 36.62,18.62 54.43,43.53 15.35,21.45 23.48,48.58 9.8,93.74 -33.35,110 -54.32,162.83 -178.66,188.77 -30.14,6.27 -47.28,5.46 -77.28,6.3 -75.86,2.13 -178.08,10.13 -169.67,-52.97l46.88 -140.18 157.56 -12.34 -20.84 71.44c11.26,16.97 18.17,21.57 36.14,10.09 35.38,-123.86 30.46,-76.91 -75.68,-139.93 -27.62,-16.42 -49.47,-34.4 -57.18,-56.18 160.62,-0.03 164.07,-102.73 211.54,-229.85zm-205.21 -61.16l-41.35 145.03c-4.75,16.68 17.61,23.12 50.83,6.8l37.33 -131.64c5.51,-19.44 -14.42,-30.94 -46.81,-20.19z"/>
   <g>
    <polyline class="fil1 str0" points="775,443.69 691.54,452.64 569.32,837.17 "/>
   </g>
   <g>
    <path class="fil1 str0" d="M1015.41 620.83c-47.86,127.61 -50.87,230.88 -211.94,230.91"/>
   </g>
  </g>
 </g>
</svg>
